<?xml version="1.0" encoding="UTF-8"?>
<svg width="96px" height="96px" viewBox="0 0 96 96" version="1.1" xmlns="http://www.w3.org/2000/svg">
    <g id="dinosaur-icon" stroke="none" stroke-width="1" fill="none" fill-rule="evenodd">
        <rect id="background" fill="#15803D" opacity="0.1" x="0" y="0" width="96" height="96" rx="12"></rect>
        <path d="M24,64 L72,64 L72,68 L24,68 L24,64 Z" id="ground" fill="#15803D" fill-rule="nonzero"></path>
        <path d="M28,52 L28,64 L32,64 L32,56 L36,56 L36,64 L40,64 L40,52 L28,52 Z" id="cactus" fill="#65A30D" fill-rule="nonzero"></path>
        <path d="M56,36 C56,36 60,20 68,20 C72,20 72,24 72,24 C72,24 68,24 68,28 C68,32 60,40 60,40 L68,40 L68,44 L60,44 L60,48 L56,48 L56,52 L52,52 L52,56 L48,56 L48,60 L44,60 L44,64 L64,64 L64,60 L72,60 L72,56 L64,56 L64,52 L60,52 L60,48 L68,48 L68,44 L72,44 L72,40 L76,40 L76,36 L56,36 Z" id="dino-body" fill="#16A34A" fill-rule="nonzero"></path>
        <circle id="dino-eye" fill="#FFFFFF" cx="70" cy="22" r="2"></circle>
    </g>
</svg>