<?xml version="1.0" encoding="UTF-8"?>
<svg width="96" height="96" viewBox="0 0 96 96" fill="none" xmlns="http://www.w3.org/2000/svg">
  <rect width="96" height="96" rx="12" fill="#f0fff4"/>
  <path d="M58 20H70V30H58V20Z" fill="#68d391"/>
  <path d="M50 30H58V40H66V50H50V40H42V50H26V60H18V70H26V60H42V50H50V30Z" fill="#68d391"/>
  <path d="M66 40H74V50H66V40Z" fill="#68d391"/>
  <path d="M50 50H58V60H50V50Z" fill="#68d391"/>
  <path d="M26 60H34V70H26V60Z" fill="#68d391"/>
  <path d="M42 60H50V70H42V60Z" fill="#68d391"/>
  <rect x="10" y="70" width="76" height="4" fill="#718096"/>
  <rect x="76" y="50" width="4" height="8" fill="#718096"/>
  <rect x="84" y="54" width="4" height="8" fill="#718096"/>
  <rect x="68" y="58" width="4" height="8" fill="#718096"/>
  <circle cx="62" cy="35" r="2" fill="#2d3748"/>
</svg>