<?xml version="1.0" encoding="UTF-8"?>
<svg width="96px" height="96px" viewBox="0 0 96 96" version="1.1" xmlns="http://www.w3.org/2000/svg">
    <g id="drawing-icon" stroke="none" stroke-width="1" fill="none" fill-rule="evenodd">
        <rect id="background" fill="#B4233D" opacity="0.1" x="0" y="0" width="96" height="96" rx="12"></rect>
        <path d="M26,16 C20.4772,16 16,20.4772 16,26 L16,70 C16,75.5228 20.4772,80 26,80 L70,80 C75.5228,80 80,75.5228 80,70 L80,26 C80,20.4772 75.5228,16 70,16 L26,16 Z M26,20 L70,20 C73.3137,20 76,22.6863 76,26 L76,70 C76,73.3137 73.3137,76 70,76 L26,76 C22.6863,76 20,73.3137 20,70 L20,26 C20,22.6863 22.6863,20 26,20 Z" id="frame" fill="#D946EF" fill-rule="nonzero"></path>
        <path d="M30,28 C25.5817,28 22,31.5817 22,36 C22,40.4183 25.5817,44 30,44 C34.4183,44 38,40.4183 38,36 C38,31.5817 34.4183,28 30,28 Z M66,28 C61.5817,28 58,31.5817 58,36 C58,40.4183 61.5817,44 66,44 C70.4183,44 74,40.4183 74,36 C74,31.5817 70.4183,28 66,28 Z M48,40 C38.0589,40 30,48.0589 30,58 C30,67.9411 38.0589,76 48,76 C57.9411,76 66,67.9411 66,58 C66,48.0589 57.9411,40 48,40 Z" id="pattern" fill="#BE185D" fill-rule="nonzero"></path>
        <circle id="brush" fill="#F59E0B" cx="48" cy="23" r="7"></circle>
    </g>
</svg>